<?xml version="1.0" encoding="UTF-8" standalone="no"?>
<!-- Created with Inkscape (http://www.inkscape.org/) -->

<svg
   width="210mm"
   height="297mm"
   viewBox="0 0 210 297"
   version="1.1"
   id="svg1"
   inkscape:version="1.3.2 (091e20ef0f, 2023-11-25, custom)"
   sodipodi:docname="hud_sketch.svg"
   xmlns:inkscape="http://www.inkscape.org/namespaces/inkscape"
   xmlns:sodipodi="http://sodipodi.sourceforge.net/DTD/sodipodi-0.dtd"
   xmlns="http://www.w3.org/2000/svg"
   xmlns:svg="http://www.w3.org/2000/svg">
  <sodipodi:namedview
     id="namedview1"
     pagecolor="#ffffff"
     bordercolor="#000000"
     borderopacity="0.25"
     inkscape:showpageshadow="2"
     inkscape:pageopacity="0.0"
     inkscape:pagecheckerboard="0"
     inkscape:deskcolor="#d1d1d1"
     inkscape:document-units="mm"
     inkscape:zoom="4.1945633"
     inkscape:cx="307.66015"
     inkscape:cy="664.1931"
     inkscape:window-width="2557"
     inkscape:window-height="1366"
     inkscape:window-x="0"
     inkscape:window-y="0"
     inkscape:window-maximized="0"
     inkscape:current-layer="layer2" />
  <defs
     id="defs1">
    <filter
       inkscape:collect="always"
       style="color-interpolation-filters:sRGB"
       id="filter12"
       x="-0.12719707"
       y="-0.12719707"
       width="1.2543941"
       height="1.2543941">
      <feGaussianBlur
         inkscape:collect="always"
         stdDeviation="0.29269377"
         id="feGaussianBlur12" />
    </filter>
    <filter
       inkscape:collect="always"
       style="color-interpolation-filters:sRGB"
       id="filter13"
       x="-0.10060023"
       y="-0.3219948"
       width="1.2012005"
       height="1.6439896">
      <feGaussianBlur
         inkscape:collect="always"
         stdDeviation="0.29269377"
         id="feGaussianBlur13" />
    </filter>
  </defs>
  <g
     inkscape:label="Layer 1"
     inkscape:groupmode="layer"
     id="layer1"
     sodipodi:insensitive="true">
    <rect
       style="vector-effect:non-scaling-stroke;fill:none;stroke:#ff0000;stroke-width:0.264583;stroke-linecap:round;stroke-linejoin:round;stroke-dasharray:none;stroke-opacity:1;-inkscape-stroke:hairline"
       id="rect1"
       width="210"
       height="119.30383"
       x="0"
       y="124.39478" />
  </g>
  <g
     inkscape:groupmode="layer"
     id="layer2"
     inkscape:label="Layer 2">
    <rect
       style="vector-effect:non-scaling-stroke;fill:#ffffff;fill-opacity:1;stroke:#000000;stroke-width:0.264583;stroke-linecap:round;stroke-linejoin:round;stroke-dasharray:none;stroke-opacity:1;-inkscape-stroke:hairline"
       id="rect2"
       width="29.109409"
       height="27.817432"
       x="178.24472"
       y="213.23531" />
    <rect
       style="vector-effect:non-scaling-stroke;fill:#32e234;fill-opacity:1;stroke:#000000;stroke-width:0.176818;stroke-linecap:round;stroke-linejoin:round;stroke-dasharray:none;stroke-opacity:1;-inkscape-stroke:hairline"
       id="rect3"
       width="57.662029"
       height="4.376338"
       x="55.789463"
       y="143.71767"
       transform="matrix(1,0,-0.33659806,0.94164842,0,0)" />
    <path
       style="vector-effect:non-scaling-stroke;fill:#00a0ff;fill-opacity:1;stroke:#000000;stroke-width:0.171582;stroke-linecap:round;stroke-linejoin:round;stroke-dasharray:none;stroke-opacity:1;-inkscape-stroke:hairline"
       d="M 8.0254633,133.6701 H 66.741113 l -1.977229,5.78238 h 10.227855 l 3.075065,-9.83161 H 9.5490692 Z"
       id="path3"
       sodipodi:nodetypes="ccccccc" />
    <rect
       style="vector-effect:non-scaling-stroke;fill:#ffffff;fill-opacity:1;stroke:none;stroke-width:0.0533128;stroke-linecap:round;stroke-linejoin:round;stroke-dasharray:none;stroke-opacity:1;-inkscape-stroke:hairline"
       id="rect4"
       width="56.519829"
       height="1.3195093"
       x="56.317833"
       y="144.58632"
       transform="matrix(1,0,-0.33659806,0.94164842,0,0)" />
    <rect
       style="vector-effect:non-scaling-stroke;fill:#ffffff;fill-opacity:1;stroke:#000000;stroke-width:0.264583;stroke-linecap:round;stroke-linejoin:round;stroke-dasharray:none;stroke-opacity:1;-inkscape-stroke:hairline"
       id="rect5"
       width="170.56921"
       height="27.817429"
       x="3.4110982"
       y="213.23531" />
    <rect
       style="vector-effect:non-scaling-stroke;fill:#ffffff;fill-opacity:1;stroke:#000000;stroke-width:0.264583;stroke-linecap:round;stroke-linejoin:round;stroke-dasharray:none;stroke-opacity:1;-inkscape-stroke:hairline"
       id="rect6"
       width="156.70976"
       height="5.3962355"
       x="17.270552"
       y="213.23531" />
    <rect
       style="vector-effect:non-scaling-stroke;fill:#ffffff;fill-opacity:1;stroke:#000000;stroke-width:0.264583;stroke-linecap:round;stroke-linejoin:round;stroke-dasharray:none;stroke-opacity:1;-inkscape-stroke:hairline"
       id="rect7"
       width="13.859453"
       height="5.3962402"
       x="17.270552"
       y="213.23531" />
    <rect
       style="vector-effect:non-scaling-stroke;fill:#ffffff;fill-opacity:1;stroke:#000000;stroke-width:0.264583;stroke-linecap:round;stroke-linejoin:round;stroke-dasharray:none;stroke-opacity:1;-inkscape-stroke:hairline"
       id="rect8"
       width="13.859453"
       height="5.3962402"
       x="31.130005"
       y="213.23531" />
    <rect
       style="vector-effect:non-scaling-stroke;fill:#ffffff;fill-opacity:1;stroke:#000000;stroke-width:0.264583;stroke-linecap:round;stroke-linejoin:round;stroke-dasharray:none;stroke-opacity:1;-inkscape-stroke:hairline"
       id="rect9"
       width="13.859453"
       height="5.3962402"
       x="44.989456"
       y="213.23531" />
    <rect
       style="vector-effect:non-scaling-stroke;fill:#ffffff;stroke:#000000;stroke-width:0.264583;stroke-linecap:round;stroke-linejoin:round;-inkscape-stroke:hairline"
       id="rect10"
       width="13.114602"
       height="13.114602"
       x="64.170189"
       y="160.0127"
       inkscape:export-filename="sprites/hud/beam-icon.png"
       inkscape:export-xdpi="123.95343"
       inkscape:export-ydpi="123.95343" />
    <g
       id="g13"
       transform="translate(-0.43038669,2.9019478)">
      <rect
         style="vector-effect:non-scaling-stroke;fill:#ff0000;fill-opacity:1;stroke:none;stroke-width:0.264583;stroke-linecap:round;stroke-linejoin:round;-inkscape-stroke:hairline;filter:url(#filter13)"
         id="rect11"
         width="6.9827375"
         height="2.1816037"
         x="65.699577"
         y="165.47096" />
      <circle
         style="vector-effect:non-scaling-stroke;fill:#ff0000;fill-opacity:1;stroke:none;stroke-width:0.264583;stroke-linecap:round;stroke-linejoin:round;-inkscape-stroke:hairline;filter:url(#filter12)"
         id="path10"
         cx="73.854851"
         cy="166.56999"
         r="2.7613256" />
      <rect
         style="vector-effect:non-scaling-stroke;fill:#ffffff;fill-opacity:1;stroke:none;stroke-width:0.242638;stroke-linecap:round;stroke-linejoin:round;-inkscape-stroke:hairline"
         id="rect12"
         width="7.8149347"
         height="1.6393315"
         x="64.997116"
         y="165.75034" />
      <circle
         style="vector-effect:non-scaling-stroke;fill:#ffffff;fill-opacity:1;stroke:none;stroke-width:0.198817;stroke-linecap:round;stroke-linejoin:round;-inkscape-stroke:hairline"
         id="circle12"
         cx="73.75885"
         cy="166.62956"
         r="2.0749543" />
    </g>
    <text
       xml:space="preserve"
       style="font-size:3.175px;font-family:'Comic Sans MS';-inkscape-font-specification:'Comic Sans MS';vector-effect:non-scaling-stroke;fill:#ffffff;fill-opacity:1;stroke:none;stroke-width:0.264583;stroke-linecap:round;stroke-linejoin:round;-inkscape-stroke:hairline"
       x="66.084366"
       y="164.35242"
       id="text13"><tspan
         sodipodi:role="line"
         id="tspan13"
         style="fill:#000000;fill-opacity:1;stroke-width:0.264583"
         x="66.084366"
         y="164.35242">BEAM</tspan></text>
    <rect
       style="vector-effect:non-scaling-stroke;fill:#ffffff;stroke:#000000;stroke-width:0.264583;stroke-linecap:round;stroke-linejoin:round;-inkscape-stroke:hairline"
       id="rect13"
       width="13.114602"
       height="13.114602"
       x="79.56311"
       y="160.0127"
       inkscape:export-filename="sprites/hud/meteor-icon.png"
       inkscape:export-xdpi="123.95343"
       inkscape:export-ydpi="123.95343" />
    <text
       xml:space="preserve"
       style="font-size:2.23936px;font-family:'Comic Sans MS';-inkscape-font-specification:'Comic Sans MS';vector-effect:non-scaling-stroke;fill:#ffffff;fill-opacity:1;stroke:none;stroke-width:0.186613;stroke-linecap:round;stroke-linejoin:round;-inkscape-stroke:hairline"
       x="81.367691"
       y="163.0768"
       id="text15"><tspan
         sodipodi:role="line"
         id="tspan15"
         style="fill:#000000;fill-opacity:1;stroke-width:0.186613"
         x="81.367691"
         y="163.0768">METEOR</tspan></text>
    <ellipse
       style="vector-effect:non-scaling-stroke;fill:#ffa900;fill-opacity:1;stroke:none;stroke-width:0.172975;stroke-linecap:round;stroke-linejoin:round;-inkscape-stroke:hairline"
       id="path15"
       cx="82.980499"
       cy="169.77869"
       rx="0.94291824"
       ry="0.3353315" />
    <ellipse
       style="fill:none;fill-opacity:1;stroke:#ffa900;stroke-width:0.13;stroke-linecap:round;stroke-linejoin:round;stroke-opacity:1;stroke-dasharray:none"
       id="ellipse17"
       cx="82.980499"
       cy="169.77869"
       rx="1.4787567"
       ry="0.52589256" />
    <ellipse
       style="fill:none;fill-opacity:1;stroke:#ffa900;stroke-width:0.121503;stroke-linecap:round;stroke-linejoin:round;stroke-dasharray:none;stroke-opacity:1"
       id="ellipse18"
       cx="82.980499"
       cy="169.77869"
       rx="2.1321449"
       ry="0.75825799" />
    <path
       style="fill:none;fill-opacity:1;stroke:#ffa900;stroke-width:0.13;stroke-linecap:round;stroke-linejoin:round;stroke-dasharray:none;stroke-opacity:1"
       d="m 81.264142,169.09111 -0.294253,-0.90843 0.550312,0.2831 -0.316495,-1.56234 0.886063,1.1608 0.02997,-0.40418 0.501172,0.44389 -0.207622,-1.49441 0.567206,1.63592 0.554519,-0.87011 0.048,0.78529 1.93503,-1.10068 -1.177361,1.25855 0.431546,0.0139 -0.374708,0.62729"
       id="path18" />
    <path
       style="fill:none;fill-opacity:1;stroke:#ffffff;stroke-width:0.511528;stroke-linecap:round;stroke-linejoin:round;stroke-dasharray:none;stroke-opacity:1"
       d="m 82.980499,169.51773 v -5.39741"
       id="path16" />
    <path
       style="fill:none;fill-opacity:1;stroke:#ffa900;stroke-width:0.212;stroke-linecap:round;stroke-linejoin:round;stroke-dasharray:none;stroke-opacity:1"
       d="m 82.980499,169.51773 v -5.39741"
       id="path17" />
    <ellipse
       style="vector-effect:non-scaling-stroke;fill:#ffa900;fill-opacity:1;stroke:none;stroke-width:0.172975;stroke-linecap:round;stroke-linejoin:round;-inkscape-stroke:hairline"
       id="ellipse19"
       cx="89.234657"
       cy="169.77869"
       rx="0.94291824"
       ry="0.3353315" />
    <ellipse
       style="fill:none;fill-opacity:1;stroke:#ffa900;stroke-width:0.13;stroke-linecap:round;stroke-linejoin:round;stroke-dasharray:none;stroke-opacity:1"
       id="ellipse20"
       cx="89.234657"
       cy="169.77869"
       rx="1.4787567"
       ry="0.52589256" />
    <ellipse
       style="fill:none;fill-opacity:1;stroke:#ffa900;stroke-width:0.121503;stroke-linecap:round;stroke-linejoin:round;stroke-dasharray:none;stroke-opacity:1"
       id="ellipse21"
       cx="89.234657"
       cy="169.77869"
       rx="2.1321449"
       ry="0.75825799" />
    <path
       style="fill:none;fill-opacity:1;stroke:#ffa900;stroke-width:0.13;stroke-linecap:round;stroke-linejoin:round;stroke-dasharray:none;stroke-opacity:1"
       d="m 87.5183,169.09111 -0.294253,-0.90843 0.550312,0.2831 -0.316495,-1.56234 0.886063,1.1608 0.02997,-0.40418 0.501172,0.44389 -0.207622,-1.49441 0.567206,1.63592 0.554519,-0.87011 0.048,0.78529 1.93503,-1.10068 -1.177361,1.25855 0.431546,0.0139 -0.374708,0.62729"
       id="path21" />
    <path
       style="fill:none;fill-opacity:1;stroke:#ffffff;stroke-width:0.511528;stroke-linecap:round;stroke-linejoin:round;stroke-dasharray:none;stroke-opacity:1"
       d="m 89.234657,169.51773 v -5.39741"
       id="path22" />
    <path
       style="fill:none;fill-opacity:1;stroke:#ffa900;stroke-width:0.212;stroke-linecap:round;stroke-linejoin:round;stroke-dasharray:none;stroke-opacity:1"
       d="m 89.234657,169.51773 v -5.39741"
       id="path23" />
    <ellipse
       style="vector-effect:non-scaling-stroke;fill:#ffa900;fill-opacity:1;stroke:none;stroke-width:0.172975;stroke-linecap:round;stroke-linejoin:round;-inkscape-stroke:hairline"
       id="ellipse23"
       cx="85.902771"
       cy="171.91934"
       rx="0.94291824"
       ry="0.3353315" />
    <ellipse
       style="fill:none;fill-opacity:1;stroke:#ffa900;stroke-width:0.13;stroke-linecap:round;stroke-linejoin:round;stroke-dasharray:none;stroke-opacity:1"
       id="ellipse24"
       cx="85.902771"
       cy="171.91934"
       rx="1.4787567"
       ry="0.52589256" />
    <ellipse
       style="fill:none;fill-opacity:1;stroke:#ffa900;stroke-width:0.121503;stroke-linecap:round;stroke-linejoin:round;stroke-dasharray:none;stroke-opacity:1"
       id="ellipse25"
       cx="85.902771"
       cy="171.91934"
       rx="2.1321449"
       ry="0.75825799" />
    <path
       style="fill:#ffffff;fill-opacity:1;stroke:#ffa900;stroke-width:0.13;stroke-linecap:round;stroke-linejoin:round;stroke-dasharray:none;stroke-opacity:1"
       d="m 84.18641,171.23176 -0.294253,-0.90843 0.550312,0.2831 -0.316495,-1.56234 0.886063,1.1608 0.02997,-0.40418 0.501172,0.44389 -0.207622,-1.49441 0.567206,1.63592 0.554519,-0.87011 0.048,0.78529 1.93503,-1.10068 -1.177361,1.25855 0.431546,0.0139 -0.374708,0.62729"
       id="path25" />
    <path
       style="fill:none;fill-opacity:1;stroke:#ffffff;stroke-width:0.511528;stroke-linecap:round;stroke-linejoin:round;stroke-dasharray:none;stroke-opacity:1"
       d="m 85.902767,171.65838 4e-6,-7.79382"
       id="path26"
       sodipodi:nodetypes="cc" />
    <path
       style="fill:none;fill-opacity:1;stroke:#ffa900;stroke-width:0.212;stroke-linecap:round;stroke-linejoin:round;stroke-dasharray:none;stroke-opacity:1"
       d="m 85.902767,171.65838 4e-6,-7.79382"
       id="path27"
       sodipodi:nodetypes="cc" />
    <circle
       style="fill:#ffffff;fill-opacity:1;stroke:#ff0000;stroke-width:0.5;stroke-dasharray:none;stroke-opacity:1"
       id="path1"
       cx="69.112869"
       cy="179.55074"
       r="1.4293977"
       inkscape:export-filename="sprites/beam-blob-1.png"
       inkscape:export-xdpi="181.49391"
       inkscape:export-ydpi="181.49391" />
    <rect
       style="vector-effect:non-scaling-stroke;fill:#ffffff;stroke:#000000;stroke-width:0.264583;stroke-linecap:round;stroke-linejoin:round;-inkscape-stroke:hairline"
       id="rect14"
       width="13.114602"
       height="13.114602"
       x="95.584221"
       y="160.0127"
       inkscape:export-filename="sprites/hud/flame-icon.png"
       inkscape:export-xdpi="123.95343"
       inkscape:export-ydpi="123.95343" />
    <text
       xml:space="preserve"
       style="font-size:2.23936px;font-family:'Comic Sans MS';-inkscape-font-specification:'Comic Sans MS';vector-effect:non-scaling-stroke;fill:#ffffff;fill-opacity:1;stroke:none;stroke-width:0.186613;stroke-linecap:round;stroke-linejoin:round;-inkscape-stroke:hairline"
       x="98.318169"
       y="163.0768"
       id="text14"><tspan
         sodipodi:role="line"
         id="tspan14"
         style="fill:#000000;fill-opacity:1;stroke-width:0.186613"
         x="98.318169"
         y="163.0768">FLAME</tspan></text>
    <path
       style="fill:#ff002b;fill-opacity:1;stroke:none;stroke-width:0.102575;stroke-linecap:round;stroke-linejoin:round;stroke-opacity:1"
       d="m 102.17975,166.17569 c 0,0 -0.12095,-0.46003 -0.12647,-0.66019 -0.006,-0.20014 0.007,-0.7335 -0.07,-0.73307 -0.0773,4.2e-4 -0.32064,0.27422 -0.38929,0.3732 -0.0687,0.099 -0.48672,0.97667 -0.50364,1.04452 -0.0169,0.0679 0.67084,0.77848 0.80967,0.62484 0.13882,-0.15364 0.27968,-0.6493 0.27968,-0.6493 z"
       id="path37" />
    <path
       style="fill:#ffa900;fill-opacity:1;stroke:#ffa900;stroke-width:0.102575;stroke-linecap:round;stroke-linejoin:round"
       d="m 101.36108,168.55173 c 0,0 -0.70148,-0.39136 -0.80037,-0.60326 -0.0989,-0.21189 0.0125,-0.86087 0.15077,-1.1435 0.13831,-0.28262 0.10319,-1.94781 0.10319,-1.94781 0,0 0.25097,0.61099 0.29478,0.83276 0.0438,0.22178 0.29615,0.85826 0.40423,0.88289 0.10808,0.0246 0.6563,-0.51572 0.74357,-0.62247 0.0873,-0.10675 0.71089,-0.5436 0.60528,-0.38977 -0.1056,0.15384 -0.30539,0.69923 -0.2747,0.7839 0.0307,0.0847 0.34681,0.73918 0.39521,0.85108 0.0484,0.1119 -0.0423,1.10419 -0.14624,1.19186 -0.10394,0.0877 -0.90769,0.59945 -1.47572,0.16432 z"
       id="path36" />
    <path
       style="fill:#f6ff00;fill-opacity:1;stroke:#f6ff00;stroke-width:0.062813;stroke-linecap:round;stroke-linejoin:round;stroke-opacity:1"
       d="m 101.9149,164.9799 c -0.37616,0.68909 -0.71283,1.30382 -1.03973,2.28005 0,0 -0.35834,0.85543 0.80099,1.20548 1.15933,0.35006 1.87839,-1.60225 1.43747,-1.42771 -1.04612,0.41412 -1.2783,-1.74421 -1.19873,-2.05782 z"
       id="path34"
       sodipodi:nodetypes="ccssc" />
    <circle
       style="fill:#ffffff;fill-opacity:1;stroke:none;stroke-width:0.0822133;stroke-linecap:round;stroke-linejoin:round"
       id="path35"
       cx="101.79773"
       cy="167.69614"
       r="0.53833175" />
    <path
       style="fill:#ff002b;fill-opacity:1;stroke:none;stroke-width:0.102575;stroke-linecap:round;stroke-linejoin:round;stroke-opacity:1"
       d="m 99.225228,168.7732 c 0,0 -0.12095,-0.46003 -0.12647,-0.66019 -0.006,-0.20014 0.007,-0.7335 -0.07,-0.73307 -0.0773,4.2e-4 -0.32064,0.27422 -0.38929,0.3732 -0.0687,0.099 -0.48672,0.97667 -0.50364,1.04452 -0.0169,0.0679 0.67084,0.77848 0.80967,0.62484 0.13882,-0.15364 0.27968,-0.6493 0.27968,-0.6493 z"
       id="path38" />
    <path
       style="fill:#ffa900;fill-opacity:1;stroke:#ffa900;stroke-width:0.102575;stroke-linecap:round;stroke-linejoin:round"
       d="m 98.406558,171.14924 c 0,0 -0.70148,-0.39136 -0.80037,-0.60326 -0.0989,-0.21189 0.0125,-0.86087 0.15077,-1.1435 0.13831,-0.28262 0.10319,-1.94781 0.10319,-1.94781 0,0 0.25097,0.61099 0.29478,0.83276 0.0438,0.22178 0.29615,0.85826 0.40423,0.88289 0.10808,0.0246 0.6563,-0.51572 0.74357,-0.62247 0.0873,-0.10675 0.710892,-0.5436 0.605281,-0.38977 -0.105601,0.15384 -0.305391,0.69923 -0.274701,0.7839 0.0307,0.0847 0.346811,0.73918 0.395212,0.85108 0.0484,0.1119 -0.0423,1.10419 -0.146241,1.19186 -0.103941,0.0877 -0.907691,0.59945 -1.475721,0.16432 z"
       id="path39" />
    <path
       style="fill:#f6ff00;fill-opacity:1;stroke:#f6ff00;stroke-width:0.062813;stroke-linecap:round;stroke-linejoin:round;stroke-opacity:1"
       d="m 98.960378,167.57741 c -0.37616,0.68909 -0.71283,1.30382 -1.03973,2.28005 0,0 -0.35834,0.85543 0.80099,1.20548 1.15933,0.35006 1.878392,-1.60225 1.437472,-1.42771 -1.046122,0.41412 -1.278302,-1.74421 -1.198732,-2.05782 z"
       id="path40"
       sodipodi:nodetypes="ccssc" />
    <circle
       style="fill:#ffffff;fill-opacity:1;stroke:none;stroke-width:0.0822133;stroke-linecap:round;stroke-linejoin:round"
       id="circle40"
       cx="98.843208"
       cy="170.29364"
       r="0.53833175" />
    <path
       style="fill:#ff002b;fill-opacity:1;stroke:none;stroke-width:0.102575;stroke-linecap:round;stroke-linejoin:round;stroke-opacity:1"
       d="m 105.34969,168.7732 c 0,0 -0.12095,-0.46003 -0.12647,-0.66019 -0.006,-0.20014 0.007,-0.7335 -0.07,-0.73307 -0.0773,4.2e-4 -0.32064,0.27422 -0.38929,0.3732 -0.0687,0.099 -0.48672,0.97667 -0.50364,1.04452 -0.0169,0.0679 0.67084,0.77848 0.80967,0.62484 0.13882,-0.15364 0.27968,-0.6493 0.27968,-0.6493 z"
       id="path41" />
    <path
       style="fill:#ffa900;fill-opacity:1;stroke:#ffa900;stroke-width:0.102575;stroke-linecap:round;stroke-linejoin:round"
       d="m 104.53102,171.14924 c 0,0 -0.70148,-0.39136 -0.80037,-0.60326 -0.0989,-0.21189 0.0125,-0.86087 0.15077,-1.1435 0.13831,-0.28262 0.10319,-1.94781 0.10319,-1.94781 0,0 0.25097,0.61099 0.29478,0.83276 0.0438,0.22178 0.29615,0.85826 0.40423,0.88289 0.10808,0.0246 0.6563,-0.51572 0.74357,-0.62247 0.0873,-0.10675 0.71089,-0.5436 0.60528,-0.38977 -0.1056,0.15384 -0.30539,0.69923 -0.2747,0.7839 0.0307,0.0847 0.34681,0.73918 0.39521,0.85108 0.0484,0.1119 -0.0423,1.10419 -0.14624,1.19186 -0.10394,0.0877 -0.90769,0.59945 -1.47572,0.16432 z"
       id="path42" />
    <path
       style="fill:#f6ff00;fill-opacity:1;stroke:#f6ff00;stroke-width:0.062813;stroke-linecap:round;stroke-linejoin:round;stroke-opacity:1"
       d="m 105.08484,167.57741 c -0.37616,0.68909 -0.71283,1.30382 -1.03973,2.28005 0,0 -0.35834,0.85543 0.80099,1.20548 1.15933,0.35006 1.87839,-1.60225 1.43747,-1.42771 -1.04612,0.41412 -1.2783,-1.74421 -1.19873,-2.05782 z"
       id="path43"
       sodipodi:nodetypes="ccssc" />
    <circle
       style="fill:#ffffff;fill-opacity:1;stroke:none;stroke-width:0.0822133;stroke-linecap:round;stroke-linejoin:round"
       id="circle43"
       cx="104.96767"
       cy="170.29364"
       r="0.53833175" />
  </g>
</svg>
